<?xml version="1.0" encoding="utf-8"?>
<!-- Generator: Adobe Illustrator 19.0.0, SVG Export Plug-In . SVG Version: 6.00 Build 0)  -->
<svg version="1.1" id="Layer_1" xmlns="http://www.w3.org/2000/svg" xmlns:xlink="http://www.w3.org/1999/xlink" x="0px" y="0px"
	 viewBox="0 0 960 560" style="enable-background:new 0 0 960 560;" xml:space="preserve">
<style type="text/css">
	.st0{fill:#E6E6E6;}
	.st1{fill:#FCEE21;}
</style>
<g id="XMLID_2_">
	<g id="XMLID_3_">
		<path id="XMLID_6_" class="st0" d="M247.4,202.8h6.2v15.6H276v6.2h-22.5v38.4c0,2.5,0.9,4.7,2.7,6.5c1.8,1.8,4,2.7,6.7,2.7
			c2.5,0,4.7-0.9,6.5-2.7c1.8-1.8,2.7-4,2.7-6.5h6.2c0,2.1-0.4,4.2-1.2,6.1c-0.8,1.9-1.9,3.5-3.3,4.9c-1.4,1.4-3.1,2.5-4.9,3.3
			c-1.9,0.8-3.9,1.2-6,1.2s-4.2-0.4-6.1-1.2c-1.9-0.8-3.5-1.9-4.9-3.3c-1.4-1.4-2.5-3-3.3-4.9c-0.8-1.9-1.2-3.9-1.2-6.1V202.8z"/>
		<path id="XMLID_23_" class="st0" d="M314.7,216.6c4.3,0,8.3,0.8,12.1,2.4c3.8,1.6,7.1,3.8,9.9,6.7c2.8,2.8,5,6.1,6.7,9.9
			c1.6,3.8,2.4,7.8,2.4,12.1v29.7h-6.3v-11.1c-2.8,3.8-6.3,6.8-10.6,9c-4.3,2.2-9.1,3.3-14.2,3.3c-4.3,0-8.3-0.8-12.1-2.4
			c-3.8-1.6-7.1-3.8-9.9-6.7c-2.8-2.8-5-6.1-6.7-9.9c-1.6-3.8-2.4-7.8-2.4-12.1c0-4.3,0.8-8.3,2.4-12.1c1.6-3.8,3.8-7.1,6.7-9.9
			c2.8-2.8,6.1-5,9.9-6.7C306.4,217.4,310.4,216.6,314.7,216.6z M314.7,222.9c-3.4,0-6.6,0.7-9.6,2c-3,1.3-5.6,3.1-7.9,5.3
			c-2.3,2.2-4,4.9-5.3,7.9c-1.3,3.1-2,6.3-2,9.7c0,3.4,0.7,6.6,2,9.6c1.3,3,3.1,5.6,5.3,7.9c2.3,2.3,4.9,4,7.9,5.3
			c3,1.3,6.2,2,9.6,2c3.4,0,6.6-0.7,9.7-2c3-1.3,5.7-3.1,7.9-5.3c2.2-2.3,4-4.9,5.3-7.9c1.3-3,2-6.2,2-9.6c0-3.4-0.7-6.6-2-9.7
			c-1.3-3-3.1-5.7-5.3-7.9c-2.2-2.2-4.9-4-7.9-5.3C321.3,223.5,318.1,222.9,314.7,222.9z"/>
		<path id="XMLID_26_" class="st0" d="M355.9,188.4h6.2v74.9c0,2.6,0.9,4.8,2.7,6.7c1.8,1.8,4,2.7,6.7,2.7v6.2
			c-2.1,0-4.2-0.4-6.1-1.2c-1.9-0.8-3.5-1.9-4.9-3.3c-1.4-1.4-2.5-3.1-3.3-5c-0.8-1.9-1.2-3.9-1.2-6.1V188.4z"/>
		<path id="XMLID_28_" class="st0" d="M380.1,188.4h6.2v59.4l29.7-29.7h8.8l-29.7,29.7l29.7,29.7H416l-29.7-29.7v29.7h-6.2V188.4z"
			/>
		<path id="XMLID_30_" class="st0" d="M435.4,188.4h6.2v10.1h-6.2V188.4z M435.4,218.1h6.2v59.4h-6.2V218.1z"/>
		<path id="XMLID_33_" class="st0" d="M484.1,216.7c4.3,0,8.3,0.8,12.1,2.4c3.8,1.6,7,3.8,9.9,6.7c2.8,2.8,5,6.1,6.7,9.9
			c1.6,3.8,2.4,7.8,2.4,12.1v29.7h-6.2v-29.7c0-3.4-0.7-6.6-2-9.7c-1.3-3-3.1-5.7-5.3-7.9c-2.2-2.2-4.9-4-7.9-5.3
			c-3.1-1.3-6.3-2-9.7-2c-3.4,0-6.6,0.7-9.6,2s-5.6,3.1-7.9,5.3c-2.3,2.2-4,4.9-5.3,7.9c-1.3,3.1-2,6.3-2,9.7v29.7h-6.2v-29.7
			c0-4.3,0.8-8.3,2.4-12.1c1.6-3.8,3.8-7.1,6.7-9.9c2.8-2.8,6.1-5,9.9-6.7C475.8,217.5,479.8,216.7,484.1,216.7z"/>
	</g>
	<g id="XMLID_4_">
		<path id="XMLID_7_" class="st1" d="M302.1,352.6c-1.6,3.8-3.8,7.1-6.7,9.9c-2.8,2.8-6.1,5-9.9,6.7c-3.8,1.6-7.8,2.4-12.1,2.4
			c-4.3,0-8.3-0.8-12.1-2.4c-3.8-1.6-7.1-3.8-9.9-6.7c-2.8-2.8-5-6.1-6.7-9.9c-1.6-3.8-2.4-7.8-2.4-12.1v-27.3
			c0-4.3,0.8-8.3,2.4-12.1c1.6-3.8,3.8-7,6.7-9.9c2.8-2.8,6.1-5,9.9-6.7c3.8-1.6,7.8-2.4,12.1-2.4c5.7,0,10.9,1.4,15.7,4.2
			c4.8,2.8,8.5,6.6,11.2,11.3l-5.3,3.1c-2.1-3.8-5.1-6.8-8.9-9.1c-3.8-2.3-8-3.4-12.6-3.4c-3.5,0-6.7,0.7-9.7,2
			c-3,1.3-5.6,3.1-7.8,5.3c-2.2,2.3-4,4.9-5.3,7.9c-1.3,3-2,6.2-2,9.6v27.3c0,3.4,0.7,6.6,2,9.6c1.3,3,3.1,5.6,5.3,7.9
			c2.2,2.3,4.8,4,7.8,5.3c3,1.3,6.3,2,9.7,2c3.4,0,6.6-0.7,9.6-2c3-1.3,5.6-3.1,7.9-5.3c2.3-2.3,4-4.9,5.3-7.9c1.3-3,2-6.2,2-9.6
			V337h-20v-6.2h20h6.2v6.2v3.6C304.5,344.9,303.7,348.9,302.1,352.6z"/>
		<path id="XMLID_9_" class="st1" d="M320.8,337.1v33.1h-6.3v-56.9c0-4.3,0.8-8.3,2.4-12.1c1.6-3.8,3.8-7,6.7-9.9
			c2.8-2.8,6.1-5,9.9-6.7c3.8-1.6,7.8-2.4,12.1-2.4c4.3,0,8.3,0.8,12.1,2.4c3.8,1.6,7,3.8,9.9,6.7c2.8,2.8,5,6.1,6.7,9.9
			c1.6,3.8,2.4,7.8,2.4,12.1V331v6.2v33.1h-6.2v-33.1H320.8z M370.5,313.4c0-3.4-0.7-6.6-2-9.6c-1.3-3-3.1-5.6-5.3-7.9
			c-2.3-2.3-4.9-4-7.9-5.3c-3-1.3-6.2-2-9.6-2c-3.5,0-6.7,0.7-9.7,2c-3,1.3-5.6,3.1-7.8,5.3c-2.2,2.3-4,4.9-5.3,7.9
			c-1.3,3-2,6.2-2,9.6V331h49.7V313.4z"/>
		<path id="XMLID_12_" class="st1" d="M388.6,283.3h28.8c3.2,0,6.3,0.6,9.1,1.8c2.8,1.2,5.3,2.9,7.4,5c2.1,2.1,3.8,4.6,5,7.4
			c1.2,2.9,1.8,5.9,1.8,9.2c0,2.9-0.5,5.6-1.4,8.1c-1,2.6-2.3,4.9-4,6.9c-1.7,2-3.8,3.7-6.1,5.1c-2.3,1.3-4.9,2.3-7.5,2.7h0.4
			l17.5,40.8h-6.8L415.3,330h-20.4v40.3h-6.2V283.3z M394.8,323.7h22.6c2.4,0,4.6-0.4,6.7-1.3c2.1-0.9,3.9-2.1,5.4-3.6
			c1.5-1.5,2.8-3.3,3.7-5.4c0.9-2.1,1.4-4.3,1.4-6.7c0-2.4-0.5-4.6-1.4-6.7c-0.9-2.1-2.1-3.9-3.7-5.4c-1.5-1.5-3.3-2.8-5.4-3.7
			c-2.1-0.9-4.3-1.4-6.7-1.4h-22.6V323.7z"/>
		<path id="XMLID_15_" class="st1" d="M458.5,337.1v33.1h-6.3v-56.9c0-4.3,0.8-8.3,2.4-12.1c1.6-3.8,3.8-7,6.7-9.9
			c2.8-2.8,6.1-5,9.9-6.7c3.8-1.6,7.8-2.4,12.1-2.4c4.3,0,8.3,0.8,12.1,2.4c3.8,1.6,7,3.8,9.9,6.7c2.8,2.8,5,6.1,6.7,9.9
			c1.6,3.8,2.4,7.8,2.4,12.1V331v6.2v33.1h-6.2v-33.1H458.5z M508.2,313.4c0-3.4-0.7-6.6-2-9.6c-1.3-3-3.1-5.6-5.3-7.9
			c-2.3-2.3-4.9-4-7.9-5.3c-3-1.3-6.2-2-9.6-2c-3.5,0-6.7,0.7-9.7,2c-3,1.3-5.6,3.1-7.8,5.3c-2.2,2.3-4,4.9-5.3,7.9
			c-1.3,3-2,6.2-2,9.6V331h49.7V313.4z"/>
		<path id="XMLID_18_" class="st1" d="M646.6,338.9c-3.3,6.5-7.8,12.2-13.4,17c-5.7,4.9-12.3,8.7-19.9,11.5
			c-7.6,2.8-15.7,4.2-24.4,4.2s-16.8-1.4-24.5-4.2c-7.7-2.8-14.4-6.6-20.1-11.5c-5.7-4.8-10.2-10.5-13.5-17
			c-3.3-6.5-4.9-13.4-4.9-20.8v-47.1c0-7.4,1.6-14.3,4.9-20.8c3.3-6.5,7.8-12.2,13.5-17c5.7-4.8,12.4-8.7,20.1-11.5
			c7.7-2.8,15.9-4.2,24.5-4.2c11.5,0,22.1,2.4,31.7,7.3c9.6,4.9,17.1,11.4,22.6,19.6l-10.8,5.3c-4.3-6.6-10.3-11.8-18-15.7
			c-7.7-3.9-16.2-5.8-25.5-5.8c-7,0-13.6,1.1-19.7,3.4c-6.1,2.3-11.4,5.3-15.9,9.2c-4.5,3.9-8,8.4-10.7,13.6c-2.6,5.2-4,10.7-4,16.6
			v47.1c0,5.9,1.3,11.4,4,16.6c2.6,5.2,6.2,9.7,10.7,13.6c4.5,3.9,9.8,7,15.9,9.2c6.1,2.3,12.6,3.4,19.7,3.4
			c6.9,0,13.4-1.1,19.5-3.4c6.1-2.3,11.4-5.3,16-9.2c4.6-3.9,8.2-8.4,10.8-13.6c2.6-5.2,4-10.7,4-16.6v-6.2h-40.4v-10.7H639h12.5
			v10.7v6.2C651.5,325.5,649.9,332.4,646.6,338.9z"/>
		<path id="XMLID_20_" class="st1" d="M665.5,287.4v-3.2h52.2v6.3h-46v34.1h40.2v6.3h-40.2V365h46v6.2h-52.2V287.4z"/>
	</g>
</g>
</svg>
